<svg xmlns="http://www.w3.org/2000/svg" viewBox="0 0 1200 760">
<rect width="1200" height="760" fill="#f7fbfb"/><rect x="28" y="28" width="1144" height="704" rx="24" fill="#fff" stroke="#cfe2e0" stroke-width="3"/>
<text x="70" y="92" font-family="Arial,sans-serif" font-size="38" font-weight="700" fill="#173f3b">碳纤维增强环氧基体与层合结构教学示意</text>
<text x="70" y="135" font-family="Arial,sans-serif" font-size="18" font-weight="700" fill="#4c7f79">PROGRAMMATIC TEACHING DIAGRAM</text>
<rect x="90" y="210" width="640" height="430" rx="22" fill="#e9f5f3"/><circle cx="170" cy="265" r="27" fill="#26333a"/><circle cx="252" cy="265" r="27" fill="#26333a"/><circle cx="334" cy="265" r="27" fill="#26333a"/><circle cx="416" cy="265" r="27" fill="#26333a"/><circle cx="498" cy="265" r="27" fill="#26333a"/><circle cx="580" cy="265" r="27" fill="#26333a"/><circle cx="662" cy="265" r="27" fill="#26333a"/><circle cx="188" cy="347" r="27" fill="#26333a"/><circle cx="270" cy="347" r="27" fill="#26333a"/><circle cx="352" cy="347" r="27" fill="#26333a"/><circle cx="434" cy="347" r="27" fill="#26333a"/><circle cx="516" cy="347" r="27" fill="#26333a"/><circle cx="598" cy="347" r="27" fill="#26333a"/><circle cx="680" cy="347" r="27" fill="#26333a"/><circle cx="170" cy="429" r="27" fill="#26333a"/><circle cx="252" cy="429" r="27" fill="#26333a"/><circle cx="334" cy="429" r="27" fill="#26333a"/><circle cx="416" cy="429" r="27" fill="#26333a"/><circle cx="498" cy="429" r="27" fill="#26333a"/><circle cx="580" cy="429" r="27" fill="#26333a"/><circle cx="662" cy="429" r="27" fill="#26333a"/><circle cx="188" cy="511" r="27" fill="#26333a"/><circle cx="270" cy="511" r="27" fill="#26333a"/><circle cx="352" cy="511" r="27" fill="#26333a"/><circle cx="434" cy="511" r="27" fill="#26333a"/><circle cx="516" cy="511" r="27" fill="#26333a"/><circle cx="598" cy="511" r="27" fill="#26333a"/><circle cx="680" cy="511" r="27" fill="#26333a"/><rect x="840" y="250" width="300" height="44" rx="8" fill="#39596b"/><rect x="840" y="320" width="300" height="44" rx="8" fill="#7fa6b8"/><rect x="840" y="390" width="300" height="44" rx="8" fill="#39596b"/><rect x="840" y="460" width="300" height="44" rx="8" fill="#7fa6b8"/><rect x="840" y="530" width="300" height="44" rx="8" fill="#39596b"/>
<text x="70" y="700" font-family="Arial,sans-serif" font-size="16" fill="#7a4f00">Conceptual diagram; not an experimental image and not to scale.</text>
</svg>
